<svg width="24" height="24" viewBox="0 0 24 24" fill="none" xmlns="http://www.w3.org/2000/svg">
<g id="icon / jam-icons / outline &#38; logos / tags">
<path id="Vector" d="M11.586 18.0711L13 16.6571L14.414 18.0711L20.579 11.9061L21.669 8.35415L19.185 5.87115L18.106 6.20715L16.508 4.60915L18.591 3.96015C18.9391 3.85197 19.3102 3.841 19.6641 3.92842C20.018 4.01584 20.3413 4.19832 20.599 4.45615L23.082 6.93915C23.3387 7.19591 23.5207 7.51772 23.6085 7.87006C23.6962 8.2224 23.6864 8.59198 23.58 8.93915L22.345 12.9701L14.415 20.9001L11.585 18.0721L11.586 18.0711ZM14.236 3.75015L16.718 6.23315C16.9747 6.48991 17.1567 6.81172 17.2445 7.16406C17.3322 7.5164 17.3224 7.88598 17.216 8.23315L15.981 12.2611L8.051 20.1921L0.270996 12.4141L8.17 4.51615L12.227 3.25415C12.5751 3.14597 12.9462 3.135 13.3001 3.22242C13.654 3.30984 13.9773 3.49232 14.235 3.75015H14.236ZM3.1 12.4141L8.05 17.3641L14.214 11.1991L15.304 7.64715L12.82 5.16415L9.235 6.27915L3.1 12.4141ZM10.524 9.93915C10.3807 9.80078 10.2665 9.63526 10.1878 9.45225C10.1092 9.26925 10.0679 9.07242 10.0661 8.87325C10.0644 8.67408 10.1023 8.47656 10.1778 8.29222C10.2532 8.10787 10.3646 7.94039 10.5054 7.79956C10.6462 7.65872 10.8137 7.54734 10.9981 7.47192C11.1824 7.39649 11.3799 7.35854 11.5791 7.36027C11.7783 7.362 11.9751 7.40338 12.1581 7.482C12.3411 7.56061 12.5066 7.67488 12.645 7.81815C12.9135 8.10186 13.0607 8.4791 13.0554 8.86967C13.05 9.26023 12.8925 9.63331 12.6164 9.90957C12.3403 10.1858 11.9673 10.3435 11.5767 10.349C11.1861 10.3545 10.8088 10.2075 10.525 9.93915H10.524ZM17.41 10.9611L18.192 8.08315C18.642 8.23515 18.947 8.40815 19.109 8.60115C19.3646 8.9059 19.4887 9.29971 19.454 9.69596C19.4194 10.0922 19.2287 10.4585 18.924 10.7141C18.634 10.9581 18.129 11.0401 17.41 10.9611Z" fill="#21272A"/>
</g>
</svg>
